<svg style="display:none">
    <symbol id="Logo" xmlns="http://www.w3.org/2000/svg" fill="none"  height="47" viewBox="0 0 133 47" stroke="currentColor">
        <path
            d="M113.54 39.5549C108.59 39.5549 107.741 34.6628 109.304 29.9015C110.542 26.1175 113.473 22.1386 117.84 22.1386C122.988 22.1386 123.508 27.3565 122.008 31.9229C120.704 35.8379 117.773 39.5549 113.54 39.5549ZM112.041 46.5324C120.64 46.5324 128.327 41.7711 131.389 33.1619C134.582 24.0961 130.997 15.0302 119.272 15.0302C109.891 15.0302 102.724 20.8996 99.9872 28.6625C96.9252 37.4026 100.249 46.5324 112.041 46.5324ZM83.5063 46.5324C86.8937 46.5324 90.348 45.8139 92.7563 44.7728C93.6047 42.4257 93.6685 40.1425 93.0178 37.8593C91.3241 38.5107 88.9797 39.1652 86.5683 39.1652C80.052 39.1652 79.4682 34.3401 80.8365 30.2303C82.3356 25.8618 86.243 22.3395 92.434 22.3395C94.0638 22.3395 95.6268 22.6013 96.6029 23.1889C98.2966 20.9057 99.2727 18.6225 99.4703 16.2753C98.0381 15.6239 95.6268 15.0363 92.5009 15.0363C82.3386 15.0363 74.3232 20.9727 71.4588 29.1892C68.7221 36.9521 70.8081 46.5385 83.5124 46.5385L83.5063 46.5324ZM48.5223 27.8131C50.2799 23.8982 53.0166 21.618 56.6016 21.618C59.7944 21.618 60.3144 23.3776 59.7944 24.7476C59.0129 26.638 56.3401 27.8131 48.5223 27.8131ZM51.3228 46.5324C54.6464 46.5324 59.3353 45.8809 63.2457 43.9235C63.8964 41.7711 63.8326 39.6188 63.1149 37.3996C60.6397 38.6386 57.1854 39.357 54.0595 39.357C49.4345 39.357 46.8925 37.8562 46.9594 34.0752C59.5968 34.401 66.177 32.1177 68.3268 26.5102C70.4766 20.8357 66.7638 15.0302 57.9669 15.0302C48.5862 15.0302 41.6806 21.7489 39.1385 28.9882C36.4687 36.6842 38.1624 46.5324 51.3198 46.5324H51.3228ZM13.5596 46.5324C22.2258 46.5324 27.1549 42.5535 32.8867 30.3582C36.0126 23.6394 38.6854 17.0516 41.7475 10.5308L45.3964 11.7059C46.3725 12.0316 46.8955 11.4441 46.4394 10.5308L42.009 1.46493C41.6836 0.813452 40.966 0.746478 40.5099 0.944356L29.4993 5.11806C28.5871 5.4438 28.6509 6.29315 29.5632 6.55191L32.8198 7.5961C30.15 13.6633 26.8265 22.7931 24.1536 28.5316C21.1554 34.9246 19.6594 39.424 14.5783 39.424C9.49715 39.424 8.64878 35.4451 10.7986 29.7706C13.2738 23.1828 17.4427 21.2253 22.1984 22.5952C23.5029 20.7687 24.479 18.0288 24.8682 15.5508C23.4999 15.1581 21.87 15.0302 20.5047 15.0302C12.8177 15.0302 5.19447 19.0091 2.06857 27.3565C-1.96956 38.118 1.76449 46.5324 13.5566 46.5324H13.5596Z"
            fill="#02F67C" />
    </symbol>
</svg>