<svg style="display:none">

    <symbol id="decoIcon" width="81" height="29" viewBox="0 0 81 29" fill="none" xmlns="http://www.w3.org/2000/svg">
        <path d="M69.009 24.0946C66.0088 24.0946 65.4947 21.1297 66.4419 18.2441C67.1919 15.9507 68.9685 13.5393 71.6149 13.5393C74.7349 13.5393 75.05 16.7016 74.1415 19.4691C73.3509 21.8418 71.5743 24.0946 69.009 24.0946ZM68.1005 28.3234C73.3122 28.3234 77.971 25.4378 79.8268 20.2201C81.7618 14.7256 79.5891 9.23115 72.4829 9.23115C66.7976 9.23115 62.4539 12.7883 60.7953 17.4931C58.9395 22.7902 60.9538 28.3234 68.1005 28.3234ZM50.8068 28.3234C52.8598 28.3234 54.9533 27.888 56.4129 27.257C56.9271 25.8345 56.9658 24.4507 56.5714 23.0669C55.5449 23.4618 54.124 23.8584 52.6626 23.8584C48.7133 23.8584 48.3595 20.9341 49.1888 18.4433C50.0973 15.7957 52.4654 13.661 56.2176 13.661C57.2053 13.661 58.1526 13.8197 58.7442 14.1758C59.7706 12.792 60.3622 11.4083 60.482 9.98576C59.614 9.59093 58.1526 9.23484 56.2581 9.23484C50.0992 9.23484 45.2413 12.8326 43.5053 17.8123C41.8467 22.5171 43.1109 28.3271 50.8105 28.3271L50.8068 28.3234ZM29.6044 16.9784C30.6696 14.6057 32.3282 13.2238 34.501 13.2238C36.436 13.2238 36.7511 14.2902 36.436 15.1204C35.9624 16.2662 34.3425 16.9784 29.6044 16.9784ZM31.3017 28.3234C33.316 28.3234 36.1577 27.9285 38.5277 26.7422C38.9221 25.4378 38.8834 24.1333 38.4484 22.7883C36.9483 23.5392 34.8548 23.9747 32.9603 23.9747C30.1573 23.9747 28.6166 23.0651 28.6572 20.7736C36.3162 20.971 40.3042 19.5872 41.6072 16.1887C42.9101 12.7496 40.6599 9.23115 35.3284 9.23115C29.6431 9.23115 25.4579 13.3031 23.9173 17.6905C22.2992 22.3547 23.3257 28.3234 31.2999 28.3234H31.3017ZM8.41492 28.3234C13.6671 28.3234 16.6545 25.9119 20.1283 18.5208C22.0228 14.4489 23.6427 10.4562 25.4985 6.50422L27.7099 7.21639C28.3015 7.41381 28.6185 7.05772 28.3421 6.50422L25.657 1.00976C25.4598 0.614924 25.0249 0.574333 24.7484 0.69426L18.0753 3.22378C17.5225 3.42119 17.5612 3.93595 18.114 4.09278L20.0878 4.72562C18.4697 8.40274 16.4554 13.9359 14.8355 17.4138C13.0184 21.2883 12.1117 24.0153 9.03228 24.0153C5.95282 24.0153 5.43866 21.6038 6.74158 18.1647C8.24169 14.1721 10.7683 12.9858 13.6506 13.816C14.4412 12.709 15.0327 11.0485 15.2686 9.54665C14.4393 9.30864 13.4515 9.23115 12.6241 9.23115C7.96525 9.23115 3.34514 11.6426 1.45065 16.7016C-0.996706 23.2238 1.26636 28.3234 8.41307 28.3234H8.41492Z" fill="#02F67C"/>
    </symbol>

    <symbol id="linkedinIcon" width="21" height="21" viewBox="0 0 21 21" fill="none" xmlns="http://www.w3.org/2000/svg">
        <path fill-rule="evenodd" clip-rule="evenodd" d="M5.5 5.09635C5.03976 5.09635 4.66667 5.46945 4.66667 5.92969V15.9297C4.66667 16.3899 5.03976 16.763 5.5 16.763H15.5C15.9602 16.763 16.3333 16.3899 16.3333 15.9297V5.92969C16.3333 5.46945 15.9602 5.09635 15.5 5.09635H5.5ZM3 5.92969C3 4.54898 4.11929 3.42969 5.5 3.42969H15.5C16.8807 3.42969 18 4.54898 18 5.92969V15.9297C18 17.3104 16.8807 18.4297 15.5 18.4297H5.5C4.11929 18.4297 3 17.3104 3 15.9297V5.92969ZM7.16667 6.76302C7.6269 6.76302 8 7.13612 8 7.59635V7.60469C8 8.06492 7.6269 8.43802 7.16667 8.43802C6.70643 8.43802 6.33333 8.06492 6.33333 7.60469V7.59635C6.33333 7.13612 6.70643 6.76302 7.16667 6.76302ZM7.16667 9.26302C7.6269 9.26302 8 9.63612 8 10.0964V14.263C8 14.7233 7.6269 15.0964 7.16667 15.0964C6.70643 15.0964 6.33333 14.7233 6.33333 14.263V10.0964C6.33333 9.63612 6.70643 9.26302 7.16667 9.26302ZM9.66667 14.263C9.66667 14.7233 10.0398 15.0964 10.5 15.0964C10.9602 15.0964 11.3333 14.7233 11.3333 14.263V11.763C11.3333 11.542 11.4211 11.33 11.5774 11.1738C11.7337 11.0175 11.9457 10.9297 12.1667 10.9297C12.3877 10.9297 12.5996 11.0175 12.7559 11.1738C12.9122 11.33 13 11.542 13 11.763V14.263C13 14.7233 13.3731 15.0964 13.8333 15.0964C14.2936 15.0964 14.6667 14.7233 14.6667 14.263V11.763C14.6667 11.1 14.4033 10.4641 13.9344 9.99525C13.4656 9.52641 12.8297 9.26302 12.1667 9.26302C11.7902 9.26302 11.4226 9.34792 11.0893 9.5071C10.9385 9.3563 10.7301 9.26302 10.5 9.26302C10.0398 9.26302 9.66667 9.63612 9.66667 10.0964V14.263Z" fill="#F3FFF9"/>
    </symbol>

    <symbol id="githubIcon" width="21" height="21" viewBox="0 0 21 21" fill="none" xmlns="http://www.w3.org/2000/svg">
        <path fill-rule="evenodd" clip-rule="evenodd" d="M8.06799 3.70231C9.66932 3.34213 11.3308 3.34214 12.9321 3.70231C13.8505 3.12947 14.5733 2.8581 15.1147 2.74041C15.4156 2.67501 15.6583 2.65758 15.8441 2.6617C15.9368 2.66376 16.0144 2.67117 16.0772 2.68034C16.1086 2.68492 16.1361 2.68992 16.1598 2.69488C16.1716 2.69735 16.1825 2.69982 16.1925 2.70221L16.2066 2.70573L16.2131 2.70743L16.2163 2.70827L16.2178 2.70868C16.2186 2.70889 16.2193 2.70909 16.0001 3.51306L16.2193 2.70909C16.4597 2.77464 16.6581 2.94429 16.7602 3.17154C17.1586 4.05832 17.2453 5.04842 17.0153 5.98298C17.6496 6.7974 17.999 7.80372 18.0001 8.84555V8.8464C18.0001 10.9353 17.3793 12.3818 16.2955 13.3201C15.5665 13.9514 14.6898 14.2966 13.8122 14.4924C13.8444 14.741 13.8399 15.0271 13.8359 15.2823C13.8346 15.363 13.8334 15.4407 13.8334 15.5131V18.4297C13.8334 18.89 13.4603 19.2631 13.0001 19.2631C12.5398 19.2631 12.1667 18.89 12.1667 18.4297V15.5131C12.1667 15.4023 12.1681 15.3007 12.1694 15.2106L12.1697 15.1931C12.1709 15.1086 12.1719 15.0375 12.1719 14.9714C12.1719 14.8275 12.1665 14.7473 12.1572 14.6917C12.1497 14.6465 12.1403 14.6224 12.1279 14.5996C12.1129 14.5721 12.0786 14.5201 11.9941 14.4356C11.7672 14.2087 11.6908 13.8716 11.7976 13.569C11.9044 13.2664 12.1755 13.052 12.4946 13.0178C13.6058 12.8987 14.5442 12.6319 15.2046 12.0602C15.8291 11.5194 16.3332 10.5911 16.3334 8.84724C16.3326 8.06787 16.0285 7.3194 15.4856 6.76029C15.2608 6.5288 15.1898 6.18835 15.3034 5.88633C15.4855 5.40221 15.5215 4.87961 15.4135 4.38171C15.0478 4.46971 14.4316 4.69913 13.5456 5.28977C13.3479 5.42159 13.1033 5.46272 12.8734 5.40283C11.3171 4.99752 9.683 4.99752 8.12675 5.40283C7.89679 5.46272 7.65219 5.42159 7.45447 5.28977C6.56852 4.69913 5.95231 4.46971 5.58665 4.38171C5.47857 4.87961 5.51459 5.40221 5.6967 5.88633C5.8103 6.18835 5.73935 6.5288 5.51455 6.76029C4.97167 7.31931 4.66761 8.06763 4.66672 8.84687C4.66681 10.591 5.17098 11.5194 5.79554 12.0602C6.45589 12.6319 7.39427 12.8987 8.5055 13.0178C8.8246 13.052 9.09571 13.2664 9.20254 13.569C9.30936 13.8716 9.23291 14.2087 9.00598 14.4356C8.86708 14.5746 8.82685 14.6765 8.80798 14.7746C8.78263 14.9064 8.78636 15.0849 8.82695 15.4097C8.83124 15.444 8.83339 15.4785 8.83339 15.5131V16.7439C8.83369 16.7568 8.83369 16.7697 8.83339 16.7825V18.4297C8.83339 18.89 8.46029 19.2631 8.00006 19.2631C7.53982 19.2631 7.16672 18.89 7.16672 18.4297V17.8101C6.62144 17.8812 6.12949 17.851 5.68183 17.7257C4.94794 17.5205 4.4371 17.0888 4.05872 16.6536C3.82548 16.3854 3.58981 16.0428 3.40682 15.7768C3.32847 15.6629 3.25977 15.563 3.20507 15.4891C2.96361 15.1626 2.83757 15.0839 2.76492 15.0625C2.32338 14.9327 2.07072 14.4695 2.20058 14.0279C2.33045 13.5864 2.79366 13.3337 3.23519 13.4636C3.87087 13.6506 4.27608 14.1343 4.54504 14.498C4.6735 14.6717 4.77488 14.8207 4.86824 14.958C5.01322 15.1711 5.13883 15.3558 5.31639 15.56C5.56301 15.8436 5.81259 16.0317 6.13078 16.1207C6.36749 16.1869 6.6975 16.2135 7.16672 16.1225V15.5641C7.12783 15.2414 7.09792 14.8672 7.16615 14.4875C6.29586 14.2909 5.42756 13.9461 4.70457 13.3201C3.62085 12.3818 3.00005 10.9353 3.00005 8.8464V8.84555C3.00112 7.80372 3.35055 6.7974 3.98482 5.98298C3.7548 5.04842 3.84149 4.05832 4.23992 3.17154C4.34202 2.94429 4.54044 2.77464 4.78079 2.70909L5.00006 3.51306C4.78079 2.70909 4.78154 2.70889 4.7823 2.70868L4.78383 2.70827L4.78696 2.70743L4.7935 2.70573L4.80766 2.70221C4.81759 2.69982 4.82847 2.69735 4.84032 2.69488C4.86404 2.68992 4.89156 2.68492 4.9229 2.68034C4.98568 2.67117 5.06334 2.66376 5.15602 2.6617C5.34184 2.65758 5.58456 2.67501 5.88541 2.74041C6.42678 2.8581 7.14961 3.12947 8.06799 3.70231Z" fill="#F3FFF9"/>
    </symbol>

    <symbol id="instagramIcon" width="21" height="21" viewBox="0 0 21 21" fill="none" xmlns="http://www.w3.org/2000/svg">
        <path fill-rule="evenodd" clip-rule="evenodd" d="M7.16667 5.09635C5.78595 5.09635 4.66667 6.21564 4.66667 7.59635V14.263C4.66667 15.6437 5.78595 16.763 7.16667 16.763H13.8333C15.214 16.763 16.3333 15.6437 16.3333 14.263V7.59635C16.3333 6.21564 15.214 5.09635 13.8333 5.09635H7.16667ZM3 7.59635C3 5.29517 4.86548 3.42969 7.16667 3.42969H13.8333C16.1345 3.42969 18 5.29517 18 7.59635V14.263C18 16.5642 16.1345 18.4297 13.8333 18.4297H7.16667C4.86548 18.4297 3 16.5642 3 14.263V7.59635ZM10.5 9.26302C9.57953 9.26302 8.83333 10.0092 8.83333 10.9297C8.83333 11.8502 9.57953 12.5964 10.5 12.5964C11.4205 12.5964 12.1667 11.8502 12.1667 10.9297C12.1667 10.0092 11.4205 9.26302 10.5 9.26302ZM7.16667 10.9297C7.16667 9.08874 8.65905 7.59635 10.5 7.59635C12.3409 7.59635 13.8333 9.08874 13.8333 10.9297C13.8333 12.7706 12.3409 14.263 10.5 14.263C8.65905 14.263 7.16667 12.7706 7.16667 10.9297Z" fill="#F3FFF9"/>
    </symbol>

    <symbol id="discordIcon" width="21" height="21" viewBox="0 0 21 21" fill="none" xmlns="http://www.w3.org/2000/svg">
        <path fill-rule="evenodd" clip-rule="evenodd" d="M7.9089 3.43471C8.28099 3.3938 8.6347 3.606 8.77372 3.95356L9.50007 5.76944C9.83534 5.73759 10.1668 5.72139 10.5 5.72139C10.8332 5.72139 11.1647 5.73759 11.4999 5.76944L12.2263 3.95356C12.3649 3.60694 12.7172 3.39482 13.0884 3.43442C14.3957 3.57386 15.8444 3.86655 17.2263 4.82928C17.3695 4.92902 17.4778 5.07118 17.5358 5.23572C18.3872 7.64806 18.8555 9.76034 19.0371 11.4665C19.2152 13.1402 19.1281 14.5201 18.7737 15.406C18.7651 15.4275 18.7556 15.4486 18.7452 15.4693C18.4355 16.0882 17.9671 16.7962 17.3808 17.3624C16.8069 17.9167 16.0189 18.4297 15.0833 18.4297C14.788 18.4297 14.5561 18.2972 14.4442 18.2259C14.3072 18.1385 14.18 18.03 14.0691 17.9232C13.845 17.7074 13.6155 17.4288 13.4111 17.1368C13.2056 16.8432 13.0084 16.5118 12.8592 16.182C12.8271 16.111 12.7952 16.0358 12.7652 15.9575C11.2394 16.1976 9.772 16.1982 8.2465 15.9594C8.22251 16.0268 8.19725 16.0922 8.17158 16.1548C8.03732 16.4821 7.85898 16.8127 7.6714 17.1069C7.48518 17.399 7.27423 17.6797 7.06509 17.8986C6.96181 18.0067 6.84074 18.119 6.70729 18.2105C6.59974 18.2842 6.36461 18.4297 6.05666 18.4297C5.13549 18.4297 4.37144 17.9008 3.82641 17.3481C3.26649 16.7802 2.8208 16.0719 2.52682 15.4548C2.51719 15.4346 2.50838 15.414 2.50041 15.393C2.1657 14.5144 2.08234 13.1419 2.25163 11.4707C2.42412 9.76799 2.86927 7.65834 3.67922 5.24765C3.73408 5.08435 3.8382 4.94207 3.97726 4.84039C5.29888 3.87392 6.62362 3.57605 7.9089 3.43471ZM6.59058 15.6134C6.42959 15.5717 6.26757 15.5276 6.1044 15.481C5.66187 15.3546 5.40563 14.8933 5.53206 14.4508C5.6585 14.0083 6.11974 13.752 6.56227 13.8784C9.3293 14.669 11.6707 14.669 14.4377 13.8784C14.8803 13.752 15.3415 14.0083 15.4679 14.4508C15.5944 14.8933 15.3381 15.3546 14.8956 15.481C14.7399 15.5255 14.5852 15.5677 14.4314 15.6077C14.5245 15.7939 14.6444 15.9923 14.7764 16.181C14.9366 16.4098 15.0977 16.6 15.2252 16.7227C15.2342 16.7314 15.2428 16.7395 15.2509 16.7469C15.5329 16.6942 15.8641 16.5102 16.2231 16.1635C16.6343 15.7664 16.9923 15.2396 17.238 14.7566C17.4323 14.2421 17.5457 13.2018 17.3798 11.6429C17.2203 10.1445 16.8121 8.25079 16.0555 6.05237C15.2574 5.55078 14.4159 5.30872 13.534 5.17199L13.1846 6.04531C13.5968 6.13758 14.0255 6.24891 14.4789 6.37845C14.9215 6.50489 15.1777 6.96612 15.0513 7.40865C14.9248 7.85118 14.4636 8.10743 14.0211 7.98099C12.6021 7.57556 11.5388 7.38805 10.5 7.38805C9.46116 7.38805 8.39792 7.57556 6.97893 7.98099C6.5364 8.10743 6.07517 7.85118 5.94873 7.40865C5.82229 6.96612 6.07854 6.50489 6.52106 6.37845C6.97446 6.24891 7.40318 6.13758 7.81537 6.04531L7.4677 5.17616C6.65709 5.31135 5.91048 5.54914 5.17294 6.03807C4.45155 8.23924 4.06199 10.1364 3.90981 11.6387C3.75152 13.2012 3.8592 14.2491 4.04698 14.7702C4.28181 15.2552 4.62299 15.7822 5.01315 16.1778C5.33688 16.5061 5.62778 16.679 5.86821 16.7386C5.98124 16.6187 6.12369 16.4342 6.26608 16.2109C6.39087 16.0152 6.50405 15.8077 6.59058 15.6134ZM15.34 16.8204C15.3391 16.8198 15.3379 16.8191 15.3366 16.8182C15.3493 16.8249 15.3508 16.8273 15.34 16.8204ZM6.33333 10.9297C6.33333 10.0092 7.07952 9.26305 8 9.26305C8.92047 9.26305 9.66667 10.0092 9.66667 10.9297C9.66667 11.8502 8.92047 12.5964 8 12.5964C7.07952 12.5964 6.33333 11.8502 6.33333 10.9297ZM11.3333 10.9297C11.3333 10.0092 12.0795 9.26305 13 9.26305C13.9205 9.26305 14.6667 10.0092 14.6667 10.9297C14.6667 11.8502 13.9205 12.5964 13 12.5964C12.0795 12.5964 11.3333 11.8502 11.3333 10.9297Z" fill="#F3FFF9"/>
    </symbol>

    <symbol id="whatsappIcon" width="21" height="21" viewBox="0 0 21 21" fill="none" xmlns="http://www.w3.org/2000/svg">
        <path fill-rule="evenodd" clip-rule="evenodd" d="M14.8328 5.87146C13.5975 4.8178 12.0201 4.25117 10.3966 4.27792C8.77321 4.30468 7.21534 4.92296 6.0154 6.01675C4.81546 7.11055 4.05593 8.60465 3.87935 10.2187C3.70278 11.8327 4.12129 13.4557 5.05635 14.783C5.22373 15.0206 5.25523 15.3283 5.13947 15.5949L4.38316 17.3367L7.06221 16.8592C7.23641 16.8282 7.41596 16.8534 7.57487 16.9312C9.03311 17.6452 10.7018 17.8024 12.2678 17.3735C13.8337 16.9445 15.1893 15.9588 16.0801 14.6014C16.971 13.2439 17.3358 11.608 17.1061 10.0007C16.8765 8.39339 16.0681 6.92512 14.8328 5.87146ZM10.3692 2.61148C12.3985 2.57804 14.3702 3.28632 15.9144 4.6034C17.4585 5.92048 18.469 7.75582 18.756 9.76497C19.0431 11.7741 18.5871 13.819 17.4735 15.5158C16.36 17.2126 14.6655 18.4447 12.7081 18.9809C10.8404 19.4925 8.85577 19.337 7.09431 18.5464L3.1463 19.25C2.84403 19.3039 2.53663 19.1872 2.34626 18.9463C2.1559 18.7054 2.11342 18.3793 2.2357 18.0977L3.43067 15.3457C2.44748 13.7654 2.01917 11.8966 2.22257 10.0374C2.44329 8.01989 3.3927 6.15226 4.89263 4.78502C6.39256 3.41778 8.33989 2.64492 10.3692 2.61148ZM7.53287 7.54556C7.76729 7.31114 8.08524 7.17944 8.41676 7.17944C8.74827 7.17944 9.06622 7.31114 9.30064 7.54556C9.53506 7.77998 9.66676 8.09793 9.66676 8.42944V9.26278C9.66676 9.59429 9.53506 9.91224 9.30064 10.1467C9.21634 10.231 9.12125 10.302 9.01861 10.3583C9.1823 10.8287 9.45088 11.261 9.80973 11.6198C10.1686 11.9786 10.6008 12.2472 11.0712 12.4109C11.1276 12.3083 11.1986 12.2132 11.2829 12.1289C11.5173 11.8945 11.8352 11.7628 12.1668 11.7628H13.0001C13.3316 11.7628 13.6496 11.8945 13.884 12.1289C14.1184 12.3633 14.2501 12.6813 14.2501 13.0128C14.2501 13.3443 14.1184 13.6622 13.884 13.8967C13.6496 14.1311 13.3316 14.2628 13.0001 14.2628H12.1668C10.8407 14.2628 9.5689 13.736 8.63122 12.7983C7.69354 11.8606 7.16676 10.5889 7.16676 9.26278V8.42944C7.16676 8.09793 7.29845 7.77998 7.53287 7.54556Z" fill="#F3FFF9"/>
    </symbol>


</svg>
